<svg width="61" height="93" viewBox="0 0 61 93" fill="none" xmlns="http://www.w3.org/2000/svg">
<path d="M38.5 4C38.5 2.067 36.933 0.5 35 0.5C33.067 0.5 31.5 2.067 31.5 4H38.5ZM31.5 4L31.5 81H38.5L38.5 4H31.5Z" fill="#4E9F3D"/>
<path d="M60.5 42C60.5 40.067 58.933 38.5 57 38.5C55.067 38.5 53.5 40.067 53.5 42H60.5ZM53.5 42V81H60.5V42H53.5Z" fill="#4E9F3D"/>
<path d="M57.0008 32.5C58.9338 32.4995 60.5005 30.9322 60.5 28.9992C60.4995 27.0662 58.9322 25.4995 56.9992 25.5L57.0008 32.5ZM56.9992 25.5L6.99916 25.512L7.00084 32.512L57.0008 32.5L56.9992 25.5Z" fill="#4E9F3D"/>
<path d="M35.0044 80.4336C36.5288 92.1599 57.9538 90.9029 56.9685 79.0001" stroke="#4E9F3D" stroke-width="7"/>
<path d="M35.0044 80.4336C36.5288 92.1599 57.9538 90.9029 56.9685 79.0001" stroke="#4E9F3D" stroke-width="7"/>
<path d="M7.5 4C7.5 2.067 5.933 0.5 4 0.5C2.067 0.5 0.5 2.067 0.5 4H7.5ZM0.5 4L0.5 81H7.5L7.5 4H0.5Z" fill="#4E9F3D"/>
<path d="M29.5 42C29.5 40.067 27.933 38.5 26 38.5C24.067 38.5 22.5 40.067 22.5 42H29.5ZM22.5 42L22.5 81H29.5L29.5 42H22.5Z" fill="#4E9F3D"/>
<path d="M4.00444 80.4336C5.52878 92.1599 26.9538 90.9029 25.9685 79.0001" stroke="#4E9F3D" stroke-width="7"/>
</svg>
